<svg width="386" height="144" viewBox="0 0 386 144" fill="none" preserveAspectRatio="xMidYMid slice" xmlns="http://www.w3.org/2000/svg">
<path d="M386 126C386 126 383.351 126 379.454 126.57C377.884 126.788 376.336 127.079 374.815 127.438C371.271 128.249 367.288 129.516 363.5 131.5C355.276 135.808 350.427 141.036 348.711 143.101C348.449 143.397 348.19 143.697 347.935 144H212.902C227.951 62.0763 299.726 0 386 0V126ZM201.298 107C198.172 114.761 195.539 122.774 193.439 131H0V107H201.298ZM218.503 71C213.518 78.6399 209.064 86.6568 205.193 95H0V71H218.503ZM245.715 35C238.084 42.3983 231.068 50.4263 224.749 59H0V53.417C0 47.0053 1.21556 40.7739 3.47852 35H245.715ZM289.799 0C277.58 6.44346 266.144 14.1707 255.667 23H10.1914C14.5726 17.194 20.2285 12.3042 26.8896 8.78223C37.7978 3.01474 49.95 3.75544e-05 62.2891 0H289.799Z" fill="white"/>
</svg>
